# xmcd
#
# Track frame offsets:
#	150
#	14673
#	34598
#	53514
#	69772
#	87892
#	102842
#	118630
#	134618
#	149483
#	165165
#	189212
#	200071
#	215182
#	233476
#
# Disc length: 3373 seconds
# Revision: 0
# Processed by: cddbd v1.5.2PL0 Copyright (c) Steve Scherf et al.
# Submitted via: dBpowerAMP V12.0
#
DISCID=ca0d2b0f
DTITLE=Various Artist - CRS 205
DYEAR=2018
DGENRE=Country
TTITLE0=Michelle Russell - I'll Give To You My Heart
TTITLE1=Dale Duncan - Station Minderoo
TTITLE2=Aly Cook - Love is a Fool Time Job
TTITLE3=Don Allen - Lonely Street
TTITLE4=James Stewart Keene - I Hear Everything
TTITLE5=Chantell Alexi - Lucky Girl
TTITLE6=Danny Phegan - I'd Be Over You
TTITLE7=Phoebe Jay -  Rollercoaster Ride
TTITLE8=Tom Curtain - Livin' in the Bush
TTITLE9=Steve Cheers - Best Part of The World
TTITLE10=Susan Lily - Musical Journey
TTITLE11=Country Pumpkins -  Spikeling Recycling
TTITLE12=Kylie Adams-Collier - Younger In Urunga
TTITLE13=Kris Cummins - Coming Down With Something
TTITLE14=STEPHEN BRADY - Too Late For Praying
EXTD=
EXTT0=
EXTT1=
EXTT2=
EXTT3=
EXTT4=
EXTT5=
EXTT6=
EXTT7=
EXTT8=
EXTT9=
EXTT10=
EXTT11=
EXTT12=
EXTT13=
EXTT14=
PLAYORDER=
